<svg version="1.1" xmlns="http://www.w3.org/2000/svg" viewBox="0 0 930.95703125 293.12109375" width="1861.9140625" height="586.2421875">
  <!-- svg-source:excalidraw -->
  
  <defs>
    <style class="style-fonts">
      @font-face {
        font-family: "Virgil";
        src: url("https://excalidraw.com/Virgil.woff2");
      }
      @font-face {
        font-family: "Cascadia";
        src: url("https://excalidraw.com/Cascadia.woff2");
      }
    </style>
  </defs>
  <rect x="0" y="0" width="930.95703125" height="293.12109375" fill="#ffffff"></rect><g stroke-linecap="round" transform="translate(10 12.07421875) rotate(0 61.76171875 44.6953125)"><path d="M2.83 9.09 C2.83 9.09, 2.83 9.09, 2.83 9.09 M2.83 9.09 C2.83 9.09, 2.83 9.09, 2.83 9.09 M0.6 17.75 C2.41 14.8, 5.6 10.09, 11.1 5.67 M0.6 17.75 C3.38 14.75, 4.91 12.63, 11.1 5.67 M1 23.39 C7.57 18.02, 13.96 8.27, 18.05 3.77 M1 23.39 C5.1 18.4, 9.01 14.02, 18.05 3.77 M0.74 29.79 C8.74 23.34, 13.86 12.83, 25.01 1.87 M0.74 29.79 C5.92 24.06, 11.24 18.14, 25.01 1.87 M1.13 35.43 C11.04 20.71, 25.36 7.73, 30 2.23 M1.13 35.43 C7.36 28.29, 14.26 21.98, 30 2.23 M0.87 41.83 C12.85 29.21, 22.53 21, 35.64 1.83 M0.87 41.83 C12.32 28.72, 22.33 16.45, 35.64 1.83 M0.61 48.23 C13.89 29.92, 30.38 14.79, 40.63 2.19 M0.61 48.23 C14.45 30.83, 29.64 13.94, 40.63 2.19 M1 53.87 C19.15 35.43, 35.62 14.45, 46.27 1.8 M1 53.87 C11.47 42.27, 22.47 28.62, 46.27 1.8 M0.74 60.27 C17.1 42.4, 33.88 19.43, 51.26 2.16 M0.74 60.27 C11.96 47.76, 21.55 34.98, 51.26 2.16 M1.13 65.91 C20.64 44.58, 40.04 20.22, 56.9 1.76 M1.13 65.91 C15.07 49.01, 30.1 33.99, 56.9 1.76 M0.87 72.31 C15.9 57.43, 30.34 39.58, 61.89 2.12 M0.87 72.31 C20.39 49.13, 39.75 25.52, 61.89 2.12 M2.58 76.44 C27.13 50.6, 49.1 25.2, 66.87 2.48 M2.58 76.44 C19.92 56.06, 38.18 37.58, 66.87 2.48 M4.29 80.58 C27.99 56.23, 50.69 26.01, 72.52 2.09 M4.29 80.58 C28.78 51.6, 53.09 22.23, 72.52 2.09 M5.99 84.71 C31.14 54.12, 55.86 27.13, 77.5 2.45 M5.99 84.71 C20.39 68.47, 35.96 51.58, 77.5 2.45 M9.67 86.58 C36.01 54.08, 64.28 22.79, 83.15 2.05 M9.67 86.58 C27.9 67.35, 44.7 45.66, 83.15 2.05 M13.34 88.45 C41.04 52.65, 71.71 17.31, 88.13 2.41 M13.34 88.45 C28.21 70.84, 44.65 53.38, 88.13 2.41 M17.67 89.56 C39.77 67.55, 56.3 43.74, 93.78 2.02 M17.67 89.56 C44.31 59.77, 69.61 29.73, 93.78 2.02 M22.66 89.92 C48.42 60.21, 75.86 28.87, 98.76 2.38 M22.66 89.92 C39.8 69.54, 58.17 49.27, 98.76 2.38 M28.3 89.53 C55.02 62.16, 80.59 29.61, 103.75 2.74 M28.3 89.53 C53.52 62.86, 76.37 34.87, 103.75 2.74 M33.29 89.89 C58.91 58.81, 84.92 28.13, 108.74 3.1 M33.29 89.89 C50.87 69.64, 69.67 48.82, 108.74 3.1 M38.93 89.5 C63.82 62.91, 87.21 37.74, 113.73 3.46 M38.93 89.5 C61.85 62.37, 85.28 36.42, 113.73 3.46 M43.92 89.86 C59.81 72.7, 73.05 56.2, 116.74 6.08 M43.92 89.86 C62.46 69.42, 80.21 47.51, 116.74 6.08 M49.56 89.46 C75.17 61.19, 102.46 33.74, 120.42 7.95 M49.56 89.46 C69.33 65.68, 90.2 43.87, 120.42 7.95 M54.55 89.82 C68.48 74.27, 83.32 57.79, 122.78 11.33 M54.55 89.82 C71.2 71.86, 87.52 52.74, 122.78 11.33 M60.19 89.43 C72.85 75.76, 86.38 60.09, 125.14 14.71 M60.19 89.43 C80.37 66.68, 100.67 44.45, 125.14 14.71 M65.18 89.79 C78.65 76.17, 93.5 60.11, 123.57 22.62 M65.18 89.79 C81.08 71.67, 95.95 53.86, 123.57 22.62 M70.17 90.15 C80.89 75.79, 96.4 62.01, 123.97 28.26 M70.17 90.15 C84.12 72, 100.42 54.78, 123.97 28.26 M75.81 89.75 C89.89 72.4, 101.53 56.08, 123.7 34.66 M75.81 89.75 C92.66 71.83, 108.28 52.86, 123.7 34.66 M80.8 90.11 C98.2 69.72, 113.36 52.25, 123.44 41.06 M80.8 90.11 C91.01 78.69, 99.5 67.09, 123.44 41.06 M86.44 89.72 C99.53 73.93, 115.42 55.22, 123.84 46.7 M86.44 89.72 C100.24 74.73, 113.77 57.4, 123.84 46.7 M91.43 90.08 C102.42 80.24, 107.92 68.21, 123.58 53.1 M91.43 90.08 C104.05 75.98, 115.06 62.59, 123.58 53.1 M97.07 89.68 C101.62 82.48, 108.45 74.68, 123.31 59.5 M97.07 89.68 C105.93 78.97, 115.93 67.62, 123.31 59.5 M102.06 90.04 C106.94 85.42, 112.35 75.96, 123.71 65.14 M102.06 90.04 C107.57 83.75, 114.17 76.22, 123.71 65.14 M108.36 88.89 C112.13 81.88, 118.02 75.67, 123.45 71.54 M108.36 88.89 C112.63 83.64, 116.72 79.01, 123.45 71.54" stroke="#228be6" stroke-width="0.5" fill="none"></path><path d="M22.35 0 M22.35 0 C47.42 -1.6, 74.24 1.41, 101.18 0 M22.35 0 C45.71 -0.34, 66.89 0.4, 101.18 0 M101.18 0 C114.35 1, 122.13 8.4, 123.52 22.35 M101.18 0 C115.11 -0.33, 121.95 5.47, 123.52 22.35 M123.52 22.35 C123.27 32.49, 123.48 42.51, 123.52 67.04 M123.52 22.35 C123.15 34.1, 123.71 44.79, 123.52 67.04 M123.52 67.04 C121.66 83.73, 115.87 90.37, 101.18 89.39 M123.52 67.04 C124.69 83.59, 114.16 89.07, 101.18 89.39 M101.18 89.39 C80.29 88.83, 55.93 91.13, 22.35 89.39 M101.18 89.39 C71.27 89.41, 43.3 88.84, 22.35 89.39 M22.35 89.39 C7.32 89.97, -1.54 82.58, 0 67.04 M22.35 89.39 C8.94 87.3, -1.17 82.19, 0 67.04 M0 67.04 C1.83 53.95, 0.57 39.72, 0 22.35 M0 67.04 C0.25 54.84, -0.45 44.17, 0 22.35 M0 22.35 C1.18 9.07, 7.1 0.53, 22.35 0 M0 22.35 C0.58 7.3, 5.8 2.16, 22.35 0" stroke="#000000" stroke-width="1" fill="none"></path></g><g transform="translate(26.76171875 31.76953125) rotate(0 45 25)"><text x="45" y="18" font-family="Virgil, Segoe UI Emoji" font-size="20px" fill="#000000" text-anchor="middle" style="white-space: pre;" direction="ltr">Login to </text><text x="45" y="43" font-family="Virgil, Segoe UI Emoji" font-size="20px" fill="#000000" text-anchor="middle" style="white-space: pre;" direction="ltr">CF</text></g><g stroke-linecap="round"><g transform="translate(140.44140625 56.63707339903203) rotate(0 55.75528441108764 1.2009876618581643)"><path d="M-0.34 0.79 C18.37 1.24, 93.09 2.09, 111.85 2.25 M1.68 0.15 C20.34 0.34, 92.93 0.8, 111.33 0.73" stroke="#000000" stroke-width="1" fill="none"></path></g><g transform="translate(140.44140625 56.63707339903203) rotate(0 55.75528441108764 1.2009876618581643)"><path d="M84.43 12.28 C92.52 10.27, 99.09 7.5, 110.4 -0.52 M83.58 11 C91.62 8.03, 102.58 3.92, 111.22 1.55" stroke="#000000" stroke-width="1" fill="none"></path></g><g transform="translate(140.44140625 56.63707339903203) rotate(0 55.75528441108764 1.2009876618581643)"><path d="M84.47 -8.24 C92.47 -4.82, 99.03 -2.17, 110.4 -0.52 M83.62 -9.52 C91.5 -5.78, 102.45 -3.18, 111.22 1.55" stroke="#000000" stroke-width="1" fill="none"></path></g></g><mask></mask><g stroke-linecap="round" transform="translate(259.11328125 10.72265625) rotate(0 61.76171875 44.6953125)"><path d="M2.83 9.09 C2.83 9.09, 2.83 9.09, 2.83 9.09 M2.83 9.09 C2.83 9.09, 2.83 9.09, 2.83 9.09 M0.6 17.75 C5.35 12.09, 8.64 9.06, 11.1 5.67 M0.6 17.75 C3.05 13.68, 7.04 10.31, 11.1 5.67 M1 23.39 C7.18 17.51, 13.01 13.43, 18.05 3.77 M1 23.39 C6.25 16.88, 11.93 10.76, 18.05 3.77 M0.74 29.79 C9.24 22.07, 12.67 15.79, 25.01 1.87 M0.74 29.79 C9.73 18.6, 18.89 6.74, 25.01 1.87 M1.13 35.43 C10.8 27.21, 19.78 14.21, 30 2.23 M1.13 35.43 C8.31 26.6, 14.58 20.01, 30 2.23 M0.87 41.83 C11.2 28.44, 22.16 17.94, 35.64 1.83 M0.87 41.83 C9.4 32.65, 17.12 21.52, 35.64 1.83 M0.61 48.23 C11.5 36.42, 22.24 23.56, 40.63 2.19 M0.61 48.23 C11.47 37.14, 19.8 24.71, 40.63 2.19 M1 53.87 C15.36 37.65, 27.93 25.14, 46.27 1.8 M1 53.87 C11.74 40.68, 22.58 28.25, 46.27 1.8 M0.74 60.27 C18.24 42.43, 34.76 21.85, 51.26 2.16 M0.74 60.27 C11.26 48.69, 22.38 35.9, 51.26 2.16 M1.13 65.91 C21.59 42.11, 44.58 15.12, 56.9 1.76 M1.13 65.91 C19.59 44.2, 38.27 23.49, 56.9 1.76 M0.87 72.31 C14.64 56.83, 25.05 43.79, 61.89 2.12 M0.87 72.31 C13.63 59.14, 26.69 43.77, 61.89 2.12 M2.58 76.44 C16.02 60.74, 32.79 40.69, 66.87 2.48 M2.58 76.44 C18.88 58.57, 34.52 39.7, 66.87 2.48 M4.29 80.58 C30.33 53.58, 54.07 21.46, 72.52 2.09 M4.29 80.58 C26.65 56.23, 47.67 31.67, 72.52 2.09 M5.99 84.71 C21.74 67.58, 38.42 47.05, 77.5 2.45 M5.99 84.71 C26.92 62.69, 46.37 39.07, 77.5 2.45 M9.67 86.58 C26.22 65.86, 43.13 46.15, 83.15 2.05 M9.67 86.58 C30.18 64.11, 51.1 39.76, 83.15 2.05 M13.34 88.45 C41.38 56.06, 71.26 20.91, 88.13 2.41 M13.34 88.45 C34.87 61.37, 57.27 36.54, 88.13 2.41 M17.67 89.56 C49.07 55.12, 78.39 23.26, 93.78 2.02 M17.67 89.56 C33.52 70, 50.76 51.23, 93.78 2.02 M22.66 89.92 C49.04 57.44, 75.09 29.45, 98.76 2.38 M22.66 89.92 C48.73 61.41, 72.96 32.51, 98.76 2.38 M28.3 89.53 C59.04 56.27, 85.14 20.63, 103.75 2.74 M28.3 89.53 C50.95 62.66, 72.16 38.95, 103.75 2.74 M33.29 89.89 C59.81 57.73, 87.7 26.35, 108.74 3.1 M33.29 89.89 C63.11 56.33, 92.07 23.57, 108.74 3.1 M38.93 89.5 C64.59 60.79, 88.81 33.02, 113.73 3.46 M38.93 89.5 C59.33 67.34, 76.9 45.61, 113.73 3.46 M43.92 89.86 C60.85 71.8, 75.61 54.42, 116.74 6.08 M43.92 89.86 C58.23 72.28, 73.52 55.5, 116.74 6.08 M49.56 89.46 C68.65 66.14, 89.04 45.6, 120.42 7.95 M49.56 89.46 C71.08 63.63, 94.96 38.37, 120.42 7.95 M54.55 89.82 C69.61 70.02, 86.65 51.79, 122.78 11.33 M54.55 89.82 C78.55 61.89, 102.16 33.71, 122.78 11.33 M60.19 89.43 C75.17 72.16, 90.12 55.08, 125.14 14.71 M60.19 89.43 C77.19 71.63, 94.07 52.33, 125.14 14.71 M65.18 89.79 C77.63 76.98, 90.15 60.42, 123.57 22.62 M65.18 89.79 C82.05 71.82, 98.38 51.67, 123.57 22.62 M70.17 90.15 C88.86 64.65, 112.33 43.41, 123.97 28.26 M70.17 90.15 C85.92 71.36, 103.82 51.17, 123.97 28.26 M75.81 89.75 C85.91 76.73, 101.05 62.74, 123.7 34.66 M75.81 89.75 C90.61 73.39, 105.65 55.31, 123.7 34.66 M80.8 90.11 C93.14 77.05, 102.88 65.43, 123.44 41.06 M80.8 90.11 C93.25 76.18, 107.11 60.3, 123.44 41.06 M86.44 89.72 C94.37 81.44, 100.49 72.09, 123.84 46.7 M86.44 89.72 C93.79 79.5, 103.9 69.99, 123.84 46.7 M91.43 90.08 C101.8 78.99, 112.85 62.84, 123.58 53.1 M91.43 90.08 C100.21 79.45, 110.72 67.93, 123.58 53.1 M97.07 89.68 C106.64 79.63, 116.54 68.18, 123.31 59.5 M97.07 89.68 C103.67 80.94, 111.95 73.76, 123.31 59.5 M102.06 90.04 C110.38 82.78, 114.39 74.92, 123.71 65.14 M102.06 90.04 C109.1 80.98, 117.68 72.49, 123.71 65.14 M108.36 88.89 C111.89 83.91, 113.79 79.74, 123.45 71.54 M108.36 88.89 C114.01 82.24, 119.9 76.86, 123.45 71.54" stroke="#228be6" stroke-width="0.5" fill="none"></path><path d="M22.35 0 M22.35 0 C49.16 -0.34, 76.8 0.88, 101.18 0 M22.35 0 C52.15 0.98, 80.63 -0.2, 101.18 0 M101.18 0 C116.26 -1.74, 125.22 6.29, 123.52 22.35 M101.18 0 C115.53 0.06, 124.07 7.07, 123.52 22.35 M123.52 22.35 C123.45 32, 122.52 45.78, 123.52 67.04 M123.52 22.35 C122.79 39.88, 123.1 56.89, 123.52 67.04 M123.52 67.04 C121.75 83.29, 117.32 88.24, 101.18 89.39 M123.52 67.04 C124.51 83.58, 115.27 91.61, 101.18 89.39 M101.18 89.39 C75.18 90.92, 47.34 89.59, 22.35 89.39 M101.18 89.39 C81.35 88.56, 61.45 89.84, 22.35 89.39 M22.35 89.39 C5.59 88.4, 0.66 82.25, 0 67.04 M22.35 89.39 C8.14 90.26, 2.08 83.12, 0 67.04 M0 67.04 C0.87 55.37, -0.94 45.31, 0 22.35 M0 67.04 C-0.67 56.48, 0.91 46.03, 0 22.35 M0 22.35 C1.34 8.47, 9.22 1.29, 22.35 0 M0 22.35 C-1.05 6.63, 6.2 -1.86, 22.35 0" stroke="#000000" stroke-width="1" fill="none"></path></g><g transform="translate(280.375 30.41796875) rotate(0 40.5 25)"><text x="40.5" y="18" font-family="Virgil, Segoe UI Emoji" font-size="20px" fill="#000000" text-anchor="middle" style="white-space: pre;" direction="ltr">Use CF </text><text x="40.5" y="43" font-family="Virgil, Segoe UI Emoji" font-size="20px" fill="#000000" text-anchor="middle" style="white-space: pre;" direction="ltr">Space</text></g><g stroke-linecap="round"><g transform="translate(392.488580312664 52.80582214910277) rotate(0 51.65981923707466 0.49947873591546)"><path d="M0.23 -0.34 C17.75 0.01, 87.35 2.1, 104.42 2.56 M-1.1 -1.56 C16.4 -1.61, 86.27 0.41, 103.97 0.71" stroke="#000000" stroke-width="1" fill="none"></path></g><g transform="translate(392.488580312664 52.80582214910277) rotate(0 51.65981923707466 0.49947873591546)"><path d="M74.99 11.89 C83.29 6.54, 89.9 7.51, 103.93 2.14 M75.71 10.92 C87.18 7.19, 98.45 2.44, 104.91 0.49" stroke="#000000" stroke-width="1" fill="none"></path></g><g transform="translate(392.488580312664 52.80582214910277) rotate(0 51.65981923707466 0.49947873591546)"><path d="M75.47 -8.63 C83.73 -9, 90.23 -3.05, 103.93 2.14 M76.19 -9.6 C87.66 -5.22, 98.75 -1.88, 104.91 0.49" stroke="#000000" stroke-width="1" fill="none"></path></g></g><mask></mask><g stroke-linecap="round" transform="translate(504.36328125 10) rotate(0 72 45)"><path d="M5.33 5.96 C5.33 5.96, 5.33 5.96, 5.33 5.96 M5.33 5.96 C5.33 5.96, 5.33 5.96, 5.33 5.96 M0.48 17.64 C4.71 13.39, 8.38 11.07, 13.6 2.55 M0.48 17.64 C3.43 14.92, 6.82 9.55, 13.6 2.55 M0.87 23.28 C4.03 20, 10.54 12.51, 19.9 1.4 M0.87 23.28 C8.7 14.26, 16.5 7.31, 19.9 1.4 M0.61 29.68 C5.53 24.45, 12.65 18.42, 24.89 1.76 M0.61 29.68 C10.57 18.61, 19.17 7.11, 24.89 1.76 M0.35 36.08 C8.95 28.75, 14.97 17.59, 29.87 2.12 M0.35 36.08 C10.51 25.8, 20.3 14.36, 29.87 2.12 M0.75 41.72 C12.9 28.47, 22.96 16.94, 35.52 1.72 M0.75 41.72 C11.53 30.24, 22.81 17.23, 35.52 1.72 M0.48 48.12 C10.95 36.61, 20.9 25.17, 40.5 2.08 M0.48 48.12 C13.11 33.99, 25.38 19.03, 40.5 2.08 M0.88 53.76 C13.22 36.73, 27.84 23.8, 46.15 1.69 M0.88 53.76 C14.26 37.44, 27.79 22.89, 46.15 1.69 M0.62 60.16 C15.73 42.33, 34.48 23.65, 51.13 2.05 M0.62 60.16 C19.78 38.3, 38.35 17.85, 51.13 2.05 M0.36 66.56 C14.43 49.83, 30.85 29.8, 56.78 1.65 M0.36 66.56 C22.37 39.83, 45.51 14.13, 56.78 1.65 M0.75 72.2 C25.93 45.64, 47.72 18.38, 61.76 2.01 M0.75 72.2 C23.92 46.14, 46.93 19.08, 61.76 2.01 M3.11 75.58 C20.9 56.88, 38.35 33.2, 67.41 1.62 M3.11 75.58 C25.37 50.27, 45.73 26.41, 67.41 1.62 M3.51 81.22 C24.43 58.63, 46.52 34.86, 72.39 1.98 M3.51 81.22 C21.11 59.21, 39.65 39.26, 72.39 1.98 M6.53 83.85 C28.1 60.05, 47.98 36.36, 78.04 1.59 M6.53 83.85 C28.93 57.73, 52.18 31.44, 78.04 1.59 M8.89 87.23 C35.22 56.13, 61.42 25.47, 83.02 1.95 M8.89 87.23 C29.73 63.68, 48.85 40.98, 83.02 1.95 M13.22 88.34 C35.85 62.4, 61.03 31.79, 88.01 2.31 M13.22 88.34 C37.42 59.98, 61.14 32.08, 88.01 2.31 M17.55 89.46 C42.85 60.57, 66.25 32.32, 93.65 1.91 M17.55 89.46 C34.6 70.21, 49.8 52.74, 93.65 1.91 M22.54 89.82 C42.05 70.17, 58.85 46.54, 98.64 2.27 M22.54 89.82 C50.37 57.87, 79.8 23.75, 98.64 2.27 M25.56 92.44 C43.28 69.88, 65.28 47.62, 104.28 1.88 M25.56 92.44 C43.08 70.36, 63.78 47.07, 104.28 1.88 M30.54 92.8 C52.07 67.62, 73.42 46.28, 109.27 2.24 M30.54 92.8 C49.52 70.6, 69.59 46.91, 109.27 2.24 M36.19 92.41 C68.83 57.82, 97.33 21.67, 114.91 1.84 M36.19 92.41 C61.43 64.45, 85.24 35.34, 114.91 1.84 M41.17 92.77 C63.72 66.71, 85.81 39.73, 121.87 -0.06 M41.17 92.77 C73.3 55.94, 104.66 19.13, 121.87 -0.06 M46.82 92.37 C75.26 59.97, 100.24 28.03, 126.2 1.05 M46.82 92.37 C67.41 67.72, 88.6 44.35, 126.2 1.05 M51.8 92.73 C82.14 59.03, 111.51 26.28, 130.53 2.17 M51.8 92.73 C68.2 74.23, 85.2 55.01, 130.53 2.17 M57.45 92.34 C85.77 62.43, 112.42 29.4, 134.86 3.28 M57.45 92.34 C87.44 58.89, 115.76 24.99, 134.86 3.28 M62.43 92.7 C80.74 71.54, 101.05 49.62, 137.88 5.91 M62.43 92.7 C89.22 61.17, 115.96 31.17, 137.88 5.91 M68.08 92.3 C88.8 70.58, 107.97 45.69, 140.9 8.53 M68.08 92.3 C84 73.44, 100.38 55.11, 140.9 8.53 M73.06 92.66 C89.66 75.24, 104.64 55.88, 143.92 11.16 M73.06 92.66 C89.7 74.03, 106.42 54.17, 143.92 11.16 M78.71 92.27 C98.86 69.54, 121.45 42.62, 143.66 17.55 M78.71 92.27 C105.57 63.46, 130.3 33.63, 143.66 17.55 M83.69 92.63 C99.59 73.89, 111.88 57.36, 144.05 23.2 M83.69 92.63 C104.07 70.8, 124.1 48.52, 144.05 23.2 M89.34 92.24 C105.87 72.96, 122.49 54.86, 143.79 29.59 M89.34 92.24 C108.78 69.64, 127.02 48.46, 143.79 29.59 M94.32 92.6 C106.72 75.62, 117.88 62.56, 144.19 35.24 M94.32 92.6 C107.17 77.26, 121.14 62.81, 144.19 35.24 M99.97 92.2 C115.64 76.54, 129.48 59.02, 143.92 41.64 M99.97 92.2 C109.7 81.2, 119.29 71.1, 143.92 41.64 M104.95 92.56 C114.93 81.98, 124.49 69.76, 144.32 47.28 M104.95 92.56 C117.05 78.38, 130.72 63.05, 144.32 47.28 M109.94 92.92 C121.05 79.9, 134.93 62.33, 144.06 53.68 M109.94 92.92 C122.6 77.84, 136.47 64.22, 144.06 53.68 M115.58 92.53 C125.83 80.93, 138.93 67.29, 143.8 60.07 M115.58 92.53 C126.37 80.91, 136.01 67.42, 143.8 60.07 M122.54 90.62 C130 85.69, 132.52 77.09, 144.19 65.72 M122.54 90.62 C127.61 84.51, 133.13 76.6, 144.19 65.72 M128.84 89.47 C136.13 81.32, 138.58 75.69, 146.55 69.1 M128.84 89.47 C134.23 83.47, 139.45 77.91, 146.55 69.1" stroke="#228be6" stroke-width="0.5" fill="none"></path><path d="M22.5 0 M22.5 0 C52.9 -1.86, 81.83 -1.43, 121.5 0 M22.5 0 C60.74 1.27, 98.41 1.45, 121.5 0 M121.5 0 C134.69 -1.31, 144.98 9.37, 144 22.5 M121.5 0 C136.47 0.86, 144.36 9.18, 144 22.5 M144 22.5 C145.22 33.64, 144.45 47.54, 144 67.5 M144 22.5 C144.59 34.19, 143.94 44.51, 144 67.5 M144 67.5 C142.11 81.29, 137.32 89.73, 121.5 90 M144 67.5 C143.39 84.61, 137.8 90.41, 121.5 90 M121.5 90 C93.75 91.9, 64.04 91.06, 22.5 90 M121.5 90 C97.52 90.47, 72.8 88.67, 22.5 90 M22.5 90 C8.16 89.78, 0.43 82.94, 0 67.5 M22.5 90 C8.78 90.99, 0.57 84.34, 0 67.5 M0 67.5 C-1.39 56.17, -1.04 40.95, 0 22.5 M0 67.5 C-0.23 51.62, -0.57 33.64, 0 22.5 M0 22.5 C-0.15 7.3, 9.49 -1.22, 22.5 0 M0 22.5 C-2.12 8.99, 7.17 -0.71, 22.5 0" stroke="#000000" stroke-width="1" fill="none"></path></g><g transform="translate(510.86328125 30) rotate(0 65.5 25)"><text x="65.5" y="18" font-family="Virgil, Segoe UI Emoji" font-size="20px" fill="#000000" text-anchor="middle" style="white-space: pre;" direction="ltr">Create Vault</text><text x="65.5" y="43" font-family="Virgil, Segoe UI Emoji" font-size="20px" fill="#000000" text-anchor="middle" style="white-space: pre;" direction="ltr">Service</text></g><g stroke-linecap="round"><g transform="translate(657.1336011241478 57.84045586881609) rotate(0 48.40121477652963 0.5653783174421392)"><path d="M-0.01 -0.63 C16.16 -0.65, 79.88 -0.03, 95.91 -0.09 M-1.48 1.66 C15.19 1.84, 82.16 1.77, 98.28 1.46" stroke="#000000" stroke-width="1" fill="none"></path></g><g transform="translate(657.1336011241478 57.84045586881609) rotate(0 48.40121477652963 0.5653783174421392)"><path d="M69.13 10.85 C76.03 9.15, 80.3 7.4, 100.23 -0.32 M70.01 11.16 C78.27 8.59, 85.7 6.66, 98.14 1.8" stroke="#000000" stroke-width="1" fill="none"></path></g><g transform="translate(657.1336011241478 57.84045586881609) rotate(0 48.40121477652963 0.5653783174421392)"><path d="M68.96 -9.67 C75.91 -7.14, 80.21 -4.65, 100.23 -0.32 M69.84 -9.36 C78.15 -6.08, 85.63 -2.16, 98.14 1.8" stroke="#000000" stroke-width="1" fill="none"></path></g></g><mask></mask><g stroke-linecap="round" transform="translate(762.0234375 16.31640625) rotate(0 75.5 45)"><path d="M5.33 5.96 C5.33 5.96, 5.33 5.96, 5.33 5.96 M5.33 5.96 C5.33 5.96, 5.33 5.96, 5.33 5.96 M0.48 17.64 C2.6 12.08, 9.05 10.1, 13.6 2.55 M0.48 17.64 C5.58 13.35, 9.5 6.69, 13.6 2.55 M0.87 23.28 C7.78 18.25, 10.81 11.15, 19.9 1.4 M0.87 23.28 C6.02 18.08, 9.11 11.89, 19.9 1.4 M0.61 29.68 C8.2 18.2, 16.88 7.53, 24.89 1.76 M0.61 29.68 C7.49 21.38, 14.38 13.67, 24.89 1.76 M0.35 36.08 C8.52 26.11, 20.42 12.91, 29.87 2.12 M0.35 36.08 C9.19 26.11, 15.43 17.9, 29.87 2.12 M0.75 41.72 C13.06 30.52, 24.57 14.76, 35.52 1.72 M0.75 41.72 C13.85 27.07, 25.93 11.98, 35.52 1.72 M0.48 48.12 C12.46 33.99, 23.37 22.02, 40.5 2.08 M0.48 48.12 C10.88 36.42, 22.46 25.05, 40.5 2.08 M0.88 53.76 C15.41 39.78, 25.31 21.97, 46.15 1.69 M0.88 53.76 C9.33 42.25, 20.24 30.78, 46.15 1.69 M0.62 60.16 C19.49 37.36, 38.99 15.87, 51.13 2.05 M0.62 60.16 C17.54 40.13, 34.79 22.1, 51.13 2.05 M0.36 66.56 C13.73 49.45, 29.68 31.19, 56.78 1.65 M0.36 66.56 C11.89 52.75, 25.2 38.2, 56.78 1.65 M0.75 72.2 C19.03 51.04, 37.27 29.95, 61.76 2.01 M0.75 72.2 C22.47 46.07, 44.55 22.61, 61.76 2.01 M3.11 75.58 C17.17 60.36, 30.76 42.47, 67.41 1.62 M3.11 75.58 C27.18 46.68, 52.46 18.36, 67.41 1.62 M3.51 81.22 C15.9 66.55, 32.18 48.57, 72.39 1.98 M3.51 81.22 C28.45 52.25, 53.55 21.99, 72.39 1.98 M6.53 83.85 C33.04 51.99, 62.62 20.67, 78.04 1.59 M6.53 83.85 C31.95 52.57, 58.77 23.62, 78.04 1.59 M8.89 87.23 C28.7 66.67, 47.05 46.51, 83.02 1.95 M8.89 87.23 C34.71 57.73, 60.54 28.78, 83.02 1.95 M13.22 88.34 C39.75 58.87, 68.38 26.58, 88.01 2.31 M13.22 88.34 C41.9 56.53, 68.21 24.64, 88.01 2.31 M17.55 89.46 C42.95 60.48, 67.53 28.35, 93.65 1.91 M17.55 89.46 C38.27 65.63, 58.67 40.97, 93.65 1.91 M22.54 89.82 C40.98 69.16, 59.27 46.95, 98.64 2.27 M22.54 89.82 C42.84 66.21, 63.21 44.46, 98.64 2.27 M25.56 92.44 C39.28 73.58, 58.21 53.64, 104.28 1.88 M25.56 92.44 C42.79 72.06, 60.16 51.61, 104.28 1.88 M30.54 92.8 C48.31 70.96, 68.42 48.2, 109.27 2.24 M30.54 92.8 C52.02 68.41, 73.38 43.44, 109.27 2.24 M36.19 92.41 C57.8 66.17, 79.82 43.82, 114.91 1.84 M36.19 92.41 C58.81 66.9, 81.73 40.02, 114.91 1.84 M41.17 92.77 C63.08 68.88, 86.72 41.37, 119.9 2.2 M41.17 92.77 C63.63 67.65, 85.83 43.3, 119.9 2.2 M46.82 92.37 C75.1 58.6, 109.13 23.45, 125.54 1.81 M46.82 92.37 C67.95 68.3, 87.96 44.33, 125.54 1.81 M51.8 92.73 C67.16 73.92, 87.1 54.54, 130.53 2.17 M51.8 92.73 C75.78 63.7, 99.87 36.69, 130.53 2.17 M57.45 92.34 C82.91 64.24, 109.19 36.14, 134.86 3.28 M57.45 92.34 C85.97 60.83, 112.96 28.98, 134.86 3.28 M62.43 92.7 C94.98 57.04, 121.72 23.8, 139.85 3.64 M62.43 92.7 C82.82 68.76, 105.25 44.26, 139.85 3.64 M68.08 92.3 C88.64 68.89, 107.59 47.97, 144.18 4.76 M68.08 92.3 C91.11 67.93, 112.22 42.12, 144.18 4.76 M73.06 92.66 C98.76 67.62, 122.51 39.36, 147.2 7.38 M73.06 92.66 C90.69 73.29, 106.65 53.7, 147.2 7.38 M78.71 92.27 C99.36 65.91, 121.89 43.64, 149.56 10.76 M78.71 92.27 C105.82 61.13, 132.99 29.55, 149.56 10.76 M83.69 92.63 C106.74 63.51, 131.48 35.87, 151.27 14.89 M83.69 92.63 C103.64 70.92, 123.02 49.42, 151.27 14.89 M89.34 92.24 C114.39 65.94, 135.97 36.88, 152.98 19.03 M89.34 92.24 C105.17 74.47, 120.67 55.54, 152.98 19.03 M94.32 92.6 C109 75.11, 125.63 58.14, 152.71 25.43 M94.32 92.6 C112.36 70.84, 130.6 51.11, 152.71 25.43 M99.97 92.2 C113.69 74.73, 133.59 54, 153.11 31.07 M99.97 92.2 C118.31 70.07, 135.75 49.13, 153.11 31.07 M104.95 92.56 C116.93 80.85, 126.49 67.06, 152.85 37.47 M104.95 92.56 C117.01 79.16, 128.98 66.48, 152.85 37.47 M109.94 92.92 C123.46 76.08, 142.37 57.62, 153.24 43.11 M109.94 92.92 C119.48 82, 128.56 72.71, 153.24 43.11 M115.58 92.53 C125.36 82.74, 132.83 71.82, 152.98 49.51 M115.58 92.53 C128.49 76.85, 141.65 62.38, 152.98 49.51 M120.57 92.89 C131.63 80.3, 138.81 69.99, 153.37 55.15 M120.57 92.89 C132.58 78.71, 145.54 63.06, 153.37 55.15 M126.21 92.49 C135.76 83.72, 143.47 72.81, 153.11 61.55 M126.21 92.49 C131.42 85.92, 137.92 79.48, 153.11 61.55 M131.2 92.85 C137.97 84.98, 145.3 79.69, 152.2 68.7 M131.2 92.85 C138.7 83.55, 145.52 75.78, 152.2 68.7 M138.16 90.95 C140.32 85.62, 147.89 82.15, 150.62 76.61 M138.16 90.95 C141.33 87.45, 144.3 82.25, 150.62 76.61" stroke="#228be6" stroke-width="0.5" fill="none"></path><path d="M22.5 0 M22.5 0 C50.31 -1.94, 83.82 -2.22, 128.5 0 M22.5 0 C61.11 -0.11, 100.67 0.14, 128.5 0 M128.5 0 C143.28 -1.26, 149.72 7.21, 151 22.5 M128.5 0 C141.26 0.94, 153.22 8.78, 151 22.5 M151 22.5 C149.24 30.92, 150.34 42.61, 151 67.5 M151 22.5 C150.34 39.12, 150.32 54.94, 151 67.5 M151 67.5 C152.99 80.53, 144.45 88.12, 128.5 90 M151 67.5 C152.39 82.45, 142.61 89.23, 128.5 90 M128.5 90 C90.03 90.64, 49.21 89.71, 22.5 90 M128.5 90 C97.25 90.34, 68.75 89.14, 22.5 90 M22.5 90 C7.93 88.85, 0.11 83.4, 0 67.5 M22.5 90 C9.05 89.21, 1.99 81.11, 0 67.5 M0 67.5 C-1.37 52.12, 1.71 36.4, 0 22.5 M0 67.5 C0.62 51.01, 0.43 37.06, 0 22.5 M0 22.5 C1.13 5.63, 9.26 0.24, 22.5 0 M0 22.5 C-1.72 5.63, 8.5 0.41, 22.5 0" stroke="#000000" stroke-width="1" fill="none"></path></g><g transform="translate(767.0234375 36.31640625) rotate(0 70 25)"><text x="70" y="18" font-family="Virgil, Segoe UI Emoji" font-size="20px" fill="#000000" text-anchor="middle" style="white-space: pre;" direction="ltr">Store Secrets</text><text x="70" y="43" font-family="Virgil, Segoe UI Emoji" font-size="20px" fill="#000000" text-anchor="middle" style="white-space: pre;" direction="ltr">in Vault</text></g><g stroke-linecap="round"><g transform="translate(851.0541134006794 109.84026571512845) rotate(0 -1.1215003257376566 37.34199072801431)"><path d="M0.34 -0.48 C-0.14 12.46, -1.4 63.73, -1.86 76.46 M-0.94 -1.78 C-1.63 10.92, -2.19 61.56, -2.58 74.75" stroke="#000000" stroke-width="1" fill="none"></path></g><g transform="translate(851.0541134006794 109.84026571512845) rotate(0 -1.1215003257376566 37.34199072801431)"><path d="M-13.08 47.07 C-7.54 57, -4.75 69.39, -1.76 75.01 M-13.16 46.38 C-8.53 56.32, -4.61 65.57, -3.52 75.17" stroke="#000000" stroke-width="1" fill="none"></path></g><g transform="translate(851.0541134006794 109.84026571512845) rotate(0 -1.1215003257376566 37.34199072801431)"><path d="M7.43 47.48 C5.09 57.31, -0.02 69.54, -1.76 75.01 M7.36 46.79 C4.82 56.6, 1.57 65.71, -3.52 75.17" stroke="#000000" stroke-width="1" fill="none"></path></g></g><mask></mask><g stroke-linecap="round" transform="translate(767.95703125 188.89453125) rotate(0 76.5 45)"><path d="M5.33 5.96 C5.33 5.96, 5.33 5.96, 5.33 5.96 M5.33 5.96 C5.33 5.96, 5.33 5.96, 5.33 5.96 M0.48 17.64 C5.82 15.69, 6.91 10.13, 13.6 2.55 M0.48 17.64 C4.33 13.58, 7.7 9.66, 13.6 2.55 M0.87 23.28 C6.33 16.57, 16.39 9.33, 19.9 1.4 M0.87 23.28 C8.09 14.88, 14.51 8.96, 19.9 1.4 M0.61 29.68 C9.77 18.02, 16.56 10.43, 24.89 1.76 M0.61 29.68 C7.7 19.89, 16.59 11.1, 24.89 1.76 M0.35 36.08 C7.79 25.4, 18.78 17.46, 29.87 2.12 M0.35 36.08 C11.44 23.14, 23.29 10.91, 29.87 2.12 M0.75 41.72 C12.02 29.1, 18.1 18.18, 35.52 1.72 M0.75 41.72 C12.63 28.69, 24.7 12.93, 35.52 1.72 M0.48 48.12 C10.81 37.16, 17.09 27.21, 40.5 2.08 M0.48 48.12 C11.46 33.84, 24.14 20.37, 40.5 2.08 M0.88 53.76 C16.61 36.91, 34.01 16.1, 46.15 1.69 M0.88 53.76 C16.28 36.94, 30.77 19.48, 46.15 1.69 M0.62 60.16 C11.17 43.46, 26.8 32.88, 51.13 2.05 M0.62 60.16 C14.47 43.59, 29.41 27.71, 51.13 2.05 M0.36 66.56 C20.64 39.04, 44.91 14.13, 56.78 1.65 M0.36 66.56 C18.29 44.87, 37.67 21.91, 56.78 1.65 M0.75 72.2 C20.68 52.17, 37.17 31.55, 61.76 2.01 M0.75 72.2 C15.79 54.97, 31.36 37.63, 61.76 2.01 M3.11 75.58 C18.93 57.58, 32.5 39.92, 67.41 1.62 M3.11 75.58 C19.58 56.87, 35.5 37.14, 67.41 1.62 M3.51 81.22 C20.21 61.3, 38.66 43.86, 72.39 1.98 M3.51 81.22 C17.78 64.44, 32.26 47.53, 72.39 1.98 M6.53 83.85 C35.37 52.69, 62.21 21.95, 78.04 1.59 M6.53 83.85 C27.92 59.97, 50.68 34.17, 78.04 1.59 M8.89 87.23 C30.42 62.08, 56.55 33.04, 83.02 1.95 M8.89 87.23 C29.79 63.35, 50.24 41.07, 83.02 1.95 M13.22 88.34 C34.96 64.46, 54.97 41.18, 88.01 2.31 M13.22 88.34 C33.87 64.09, 54.11 41.18, 88.01 2.31 M17.55 89.46 C43.7 57.2, 73.07 23.89, 93.65 1.91 M17.55 89.46 C37.8 66.79, 58 43.4, 93.65 1.91 M22.54 89.82 C47.14 62.12, 70.58 34.51, 98.64 2.27 M22.54 89.82 C46.42 64.3, 67.77 37.54, 98.64 2.27 M25.56 92.44 C48 65.19, 70.19 41.2, 104.28 1.88 M25.56 92.44 C51.26 62.61, 77.1 32.91, 104.28 1.88 M30.54 92.8 C51.84 67.74, 73.31 45.06, 109.27 2.24 M30.54 92.8 C53.31 65.47, 77.35 39.51, 109.27 2.24 M36.19 92.41 C64.67 61.35, 92.53 28.25, 114.91 1.84 M36.19 92.41 C59.31 65.76, 81.28 38.9, 114.91 1.84 M41.17 92.77 C66.23 65.73, 89.06 37.54, 119.9 2.2 M41.17 92.77 C64.03 67.73, 86.77 41.2, 119.9 2.2 M46.82 92.37 C72.83 64.43, 94.08 35.17, 125.54 1.81 M46.82 92.37 C71.5 63.63, 96.84 34.47, 125.54 1.81 M51.8 92.73 C75.44 67.02, 99 38.76, 131.84 0.66 M51.8 92.73 C77.12 61.4, 104.57 30.88, 131.84 0.66 M57.45 92.34 C80.05 70.51, 100.13 45.27, 136.17 1.77 M57.45 92.34 C78.35 69.87, 95.92 48.26, 136.17 1.77 M62.43 92.7 C89.38 62.34, 114.68 31.61, 140.51 2.89 M62.43 92.7 C92.22 59.68, 120.89 26.76, 140.51 2.89 M68.08 92.3 C96.24 61.5, 122.01 32.44, 144.84 4 M68.08 92.3 C89.29 70.49, 107.73 46.94, 144.84 4 M73.06 92.66 C91.01 70.86, 111.5 47.57, 147.86 6.63 M73.06 92.66 C100.5 60.85, 128.66 30.39, 147.86 6.63 M78.71 92.27 C102.84 61.66, 131.8 31.62, 150.87 9.25 M78.71 92.27 C93.51 74.4, 109.42 55.89, 150.87 9.25 M83.69 92.63 C102.86 69.3, 122.53 48.98, 151.92 14.14 M83.69 92.63 C108.67 64.23, 134 35.64, 151.92 14.14 M89.34 92.24 C103.94 74.67, 122.09 57.01, 153.63 18.27 M89.34 92.24 C110.29 68.12, 130.97 45.39, 153.63 18.27 M94.32 92.6 C118.13 65.11, 140.18 39.52, 154.03 23.92 M94.32 92.6 C110.16 75.12, 124.47 57.44, 154.03 23.92 M99.97 92.2 C110.85 76.86, 125.71 63.79, 153.76 30.31 M99.97 92.2 C112.68 77.56, 124.21 64.53, 153.76 30.31 M104.95 92.56 C119.97 75.91, 137.12 56.11, 154.16 35.96 M104.95 92.56 C114.63 80.71, 126.27 69.21, 154.16 35.96 M109.94 92.92 C125.47 78.75, 138.64 59.53, 153.9 42.36 M109.94 92.92 C124.99 76.01, 139.9 56.96, 153.9 42.36 M115.58 92.53 C128.36 76.25, 144.08 62.77, 153.64 48.75 M115.58 92.53 C124.35 82.21, 132.26 74.47, 153.64 48.75 M120.57 92.89 C132.26 79.81, 144.89 68.07, 154.03 54.4 M120.57 92.89 C134.08 78, 146.67 62.85, 154.03 54.4 M126.21 92.49 C131.55 85.16, 138.78 77.54, 153.77 60.79 M126.21 92.49 C136.98 79.5, 146.43 69.25, 153.77 60.79 M132.51 91.34 C138.45 81.78, 147.62 73.79, 152.85 67.95 M132.51 91.34 C140.83 82.02, 146.7 73.52, 152.85 67.95 M138.81 90.19 C143.71 84.53, 146.57 80.28, 151.28 75.85 M138.81 90.19 C144.09 85.54, 148.33 78.94, 151.28 75.85" stroke="#228be6" stroke-width="0.5" fill="none"></path><path d="M22.5 0 M22.5 0 C45.78 0.59, 70.14 -1.53, 130.5 0 M22.5 0 C64.69 -0.51, 105.15 -1.07, 130.5 0 M130.5 0 C146.07 1.84, 152.4 5.8, 153 22.5 M130.5 0 C147.3 0.18, 151.51 6.34, 153 22.5 M153 22.5 C152.83 32.34, 152.74 41.48, 153 67.5 M153 22.5 C153.22 40.26, 153.51 57.97, 153 67.5 M153 67.5 C152 82.12, 143.64 91.68, 130.5 90 M153 67.5 C155.23 82.12, 146.83 90.12, 130.5 90 M130.5 90 C102.07 89.96, 73.74 90.56, 22.5 90 M130.5 90 C108.94 90.85, 85.25 91.23, 22.5 90 M22.5 90 C7.14 88.33, 1.02 83.89, 0 67.5 M22.5 90 C8.26 92.28, -0.84 82.19, 0 67.5 M0 67.5 C-1.3 54.86, 1.46 36.45, 0 22.5 M0 67.5 C0.48 50.15, 0.68 31.86, 0 22.5 M0 22.5 C-0.49 8.01, 8.39 -0.09, 22.5 0 M0 22.5 C-0.71 7.01, 5.67 0.46, 22.5 0" stroke="#000000" stroke-width="1" fill="none"></path></g><g transform="translate(778.95703125 208.89453125) rotate(0 65 25)"><text x="65" y="18" font-family="Virgil, Segoe UI Emoji" font-size="20px" fill="#000000" text-anchor="middle" style="white-space: pre;" direction="ltr">Prepare app </text><text x="65" y="43" font-family="Virgil, Segoe UI Emoji" font-size="20px" fill="#000000" text-anchor="middle" style="white-space: pre;" direction="ltr">manifest</text></g><g stroke-linecap="round" transform="translate(510.76953125 191.73046875) rotate(0 72 45)"><path d="M5.33 5.96 C5.33 5.96, 5.33 5.96, 5.33 5.96 M5.33 5.96 C5.33 5.96, 5.33 5.96, 5.33 5.96 M0.48 17.64 C4.13 12.84, 7.7 9.7, 13.6 2.55 M0.48 17.64 C5.08 12.06, 9.88 6.69, 13.6 2.55 M0.87 23.28 C4.67 19.41, 11.37 10.12, 19.9 1.4 M0.87 23.28 C5.53 17.7, 11.21 13, 19.9 1.4 M0.61 29.68 C5.81 24.07, 9.09 19.05, 24.89 1.76 M0.61 29.68 C9.51 20.34, 17.35 10.16, 24.89 1.76 M0.35 36.08 C9.97 25.25, 16.82 17.78, 29.87 2.12 M0.35 36.08 C10.44 23.26, 21.82 12.29, 29.87 2.12 M0.75 41.72 C11.48 29.52, 23.98 16.66, 35.52 1.72 M0.75 41.72 C11.52 30.48, 21.51 19.67, 35.52 1.72 M0.48 48.12 C15.8 32.16, 32.54 13.12, 40.5 2.08 M0.48 48.12 C11.6 36.34, 22.04 24.37, 40.5 2.08 M0.88 53.76 C15.67 37.96, 27.52 21.03, 46.15 1.69 M0.88 53.76 C16.79 35.68, 33.64 17.15, 46.15 1.69 M0.62 60.16 C15.25 43.23, 30.16 27.68, 51.13 2.05 M0.62 60.16 C11.51 47.14, 23.93 34, 51.13 2.05 M0.36 66.56 C14.81 49.1, 32.96 28.25, 56.78 1.65 M0.36 66.56 C14.69 48.68, 28.91 32.73, 56.78 1.65 M0.75 72.2 C18.55 49.05, 40.52 26.68, 61.76 2.01 M0.75 72.2 C14.72 54.75, 29.63 37.96, 61.76 2.01 M3.11 75.58 C23.43 51.67, 45.52 28.9, 67.41 1.62 M3.11 75.58 C24.3 53.03, 44.84 28.66, 67.41 1.62 M3.51 81.22 C23.11 56.98, 44.18 32.96, 72.39 1.98 M3.51 81.22 C21.85 61.12, 38.7 41.11, 72.39 1.98 M6.53 83.85 C28.28 61.43, 47.8 37.14, 78.04 1.59 M6.53 83.85 C33.55 52.78, 61.18 21.64, 78.04 1.59 M8.89 87.23 C29.56 63.95, 48.77 41.41, 83.02 1.95 M8.89 87.23 C28.16 63.74, 48.45 42.22, 83.02 1.95 M13.22 88.34 C40.48 58.19, 62.37 29.41, 88.01 2.31 M13.22 88.34 C32.43 64.66, 53.84 39.73, 88.01 2.31 M17.55 89.46 C48.41 54.9, 77.93 19.44, 93.65 1.91 M17.55 89.46 C35.86 67.29, 54.18 46.62, 93.65 1.91 M22.54 89.82 C47.73 62.31, 74.04 31.37, 98.64 2.27 M22.54 89.82 C52.18 55.39, 82 20.9, 98.64 2.27 M25.56 92.44 C56.25 56.75, 86.27 19.8, 104.28 1.88 M25.56 92.44 C44.75 71.83, 62.56 50.23, 104.28 1.88 M30.54 92.8 C49.91 72.4, 64.81 49.3, 109.27 2.24 M30.54 92.8 C57.39 62.48, 81.89 34.88, 109.27 2.24 M36.19 92.41 C65.35 60.07, 89.23 30.69, 114.91 1.84 M36.19 92.41 C56.78 68.26, 77.79 45.06, 114.91 1.84 M41.17 92.77 C66.23 62.66, 95.72 29.33, 121.87 -0.06 M41.17 92.77 C70.85 59.46, 100.03 27.45, 121.87 -0.06 M46.82 92.37 C70.69 62.03, 97.65 33.66, 126.2 1.05 M46.82 92.37 C77.14 55.83, 109.75 22.06, 126.2 1.05 M51.8 92.73 C82.14 56.41, 111.95 19.32, 130.53 2.17 M51.8 92.73 C70.05 72.42, 87.5 51.91, 130.53 2.17 M57.45 92.34 C78.97 66.55, 101.58 42.98, 134.86 3.28 M57.45 92.34 C76.64 69.7, 97.35 46.01, 134.86 3.28 M62.43 92.7 C88.26 63.34, 115.19 31.96, 137.88 5.91 M62.43 92.7 C89.3 61.14, 118.14 30.54, 137.88 5.91 M68.08 92.3 C83.83 71.53, 100.97 51.58, 140.9 8.53 M68.08 92.3 C96.3 60.05, 122.11 28, 140.9 8.53 M73.06 92.66 C99.1 64.9, 123.51 36.34, 143.92 11.16 M73.06 92.66 C89.19 73.01, 106.35 54.6, 143.92 11.16 M78.71 92.27 C96.15 72.26, 113.52 52.25, 143.66 17.55 M78.71 92.27 C92.59 74.11, 107.9 57.08, 143.66 17.55 M83.69 92.63 C102.71 70.11, 125 43.67, 144.05 23.2 M83.69 92.63 C95.18 78.93, 108.2 63.59, 144.05 23.2 M89.34 92.24 C103.34 75.09, 116.69 59.56, 143.79 29.59 M89.34 92.24 C109.11 68.86, 129.4 46.92, 143.79 29.59 M94.32 92.6 C108.83 74.86, 127.02 57.18, 144.19 35.24 M94.32 92.6 C108.44 77.78, 121.85 61, 144.19 35.24 M99.97 92.2 C110.64 80.95, 119.78 71.39, 143.92 41.64 M99.97 92.2 C112.34 78.68, 125.17 63.59, 143.92 41.64 M104.95 92.56 C112.81 85.22, 120.22 73.11, 144.32 47.28 M104.95 92.56 C117.83 77.44, 131.6 61.62, 144.32 47.28 M109.94 92.92 C123.47 76.92, 135.52 63.51, 144.06 53.68 M109.94 92.92 C123.51 77.48, 134.76 63.1, 144.06 53.68 M115.58 92.53 C122.12 85.52, 129.79 74.12, 143.8 60.07 M115.58 92.53 C124.55 81.58, 133.74 69.81, 143.8 60.07 M122.54 90.62 C129.25 82.34, 133.32 77.28, 144.19 65.72 M122.54 90.62 C130.01 82.04, 139.46 71.59, 144.19 65.72 M128.84 89.47 C135.71 81.11, 144.64 73.55, 146.55 69.1 M128.84 89.47 C134.09 84.04, 140.31 77.69, 146.55 69.1" stroke="#228be6" stroke-width="0.5" fill="none"></path><path d="M22.5 0 M22.5 0 C40.85 -0.32, 63.71 1.1, 121.5 0 M22.5 0 C54.85 -0.18, 86.95 0.87, 121.5 0 M121.5 0 C135.75 -1.3, 142.27 9.32, 144 22.5 M121.5 0 C137.45 0.85, 142.79 7.48, 144 22.5 M144 22.5 C144.35 36.59, 145.28 49.05, 144 67.5 M144 22.5 C144.57 33.35, 144.59 44.57, 144 67.5 M144 67.5 C144.74 84.02, 137.84 89.61, 121.5 90 M144 67.5 C143.42 82.74, 134.99 88.71, 121.5 90 M121.5 90 C91.37 89.38, 57.77 90.14, 22.5 90 M121.5 90 C85.52 90.05, 50.92 91.49, 22.5 90 M22.5 90 C8.63 91.27, 0.55 84.47, 0 67.5 M22.5 90 C7.62 91.7, 1.02 81.61, 0 67.5 M0 67.5 C0.08 58.14, -0.51 48.24, 0 22.5 M0 67.5 C0.15 58.42, 0.88 49.24, 0 22.5 M0 22.5 C1.58 7.46, 8.98 -0.81, 22.5 0 M0 22.5 C-1.47 5.26, 7.73 -1.51, 22.5 0" stroke="#000000" stroke-width="1" fill="none"></path></g><g transform="translate(517.26953125 211.73046875) rotate(0 65.5 25)"><text x="65.5" y="18" font-family="Virgil, Segoe UI Emoji" font-size="20px" fill="#000000" text-anchor="middle" style="white-space: pre;" direction="ltr">Bind app to </text><text x="65.5" y="43" font-family="Virgil, Segoe UI Emoji" font-size="20px" fill="#000000" text-anchor="middle" style="white-space: pre;" direction="ltr">Vault Service</text></g><g stroke-linecap="round"><g transform="translate(761.453125 240.19921875) rotate(0 -46.75820920763533 1.4658145788125694)"><path d="M0.54 0.94 C-14.94 1.39, -77.78 2.49, -93.34 2.55 M-0.64 0.39 C-16.19 0.52, -78.65 0.51, -94.06 0.84" stroke="#000000" stroke-width="1" fill="none"></path></g><g transform="translate(761.453125 240.19921875) rotate(0 -46.75820920763533 1.4658145788125694)"><path d="M-64.4 -8.95 C-72 -5.18, -81.43 -5.73, -93.88 -0.09 M-65.26 -9.81 C-73.58 -6.89, -80.03 -3.89, -94.73 1.01" stroke="#000000" stroke-width="1" fill="none"></path></g><g transform="translate(761.453125 240.19921875) rotate(0 -46.75820920763533 1.4658145788125694)"><path d="M-64.21 11.57 C-71.83 9.97, -81.31 4.05, -93.88 -0.09 M-65.07 10.71 C-73.58 8.66, -80.07 6.69, -94.73 1.01" stroke="#000000" stroke-width="1" fill="none"></path></g></g><mask></mask><g stroke-linecap="round" transform="translate(257.11328125 193.12109375) rotate(0 72 45)"><path d="M5.33 5.96 C5.33 5.96, 5.33 5.96, 5.33 5.96 M5.33 5.96 C5.33 5.96, 5.33 5.96, 5.33 5.96 M0.48 17.64 C3.92 13.49, 9.51 6.81, 13.6 2.55 M0.48 17.64 C4.11 12.17, 10.46 7.11, 13.6 2.55 M0.87 23.28 C8.14 16.48, 13.91 8.94, 19.9 1.4 M0.87 23.28 C4.93 19.08, 10.28 12.41, 19.9 1.4 M0.61 29.68 C10.18 20.8, 19.4 10.37, 24.89 1.76 M0.61 29.68 C4.97 23.88, 9.69 17.79, 24.89 1.76 M0.35 36.08 C6.78 26.81, 14.71 19.69, 29.87 2.12 M0.35 36.08 C10.5 24.81, 19.83 13.54, 29.87 2.12 M0.75 41.72 C14.85 28.33, 29.93 9.94, 35.52 1.72 M0.75 41.72 C9.7 32.24, 18.42 22.24, 35.52 1.72 M0.48 48.12 C17.93 29.1, 30.84 14.01, 40.5 2.08 M0.48 48.12 C14.57 32.08, 30.01 15.81, 40.5 2.08 M0.88 53.76 C16.89 37.5, 29.86 20.7, 46.15 1.69 M0.88 53.76 C14.02 38.53, 28.51 22.59, 46.15 1.69 M0.62 60.16 C11.69 45.41, 24.07 32.12, 51.13 2.05 M0.62 60.16 C20.89 37.79, 39.68 15.4, 51.13 2.05 M0.36 66.56 C15.75 46.54, 31.91 29.74, 56.78 1.65 M0.36 66.56 C13.65 51.7, 25.54 35.56, 56.78 1.65 M0.75 72.2 C14.01 54.21, 29.79 39.03, 61.76 2.01 M0.75 72.2 C13.41 58.82, 25.86 44.71, 61.76 2.01 M3.11 75.58 C25.78 48.47, 52 22.54, 67.41 1.62 M3.11 75.58 C20.5 57.02, 36.92 38.06, 67.41 1.62 M3.51 81.22 C26.61 50.98, 54.15 24.2, 72.39 1.98 M3.51 81.22 C29.57 49.57, 57.3 18.24, 72.39 1.98 M6.53 83.85 C28.89 58.52, 49.01 34.28, 78.04 1.59 M6.53 83.85 C25.16 62.28, 44 38.48, 78.04 1.59 M8.89 87.23 C23.58 69.67, 40.47 51.23, 83.02 1.95 M8.89 87.23 C30.41 64.1, 49.82 42.56, 83.02 1.95 M13.22 88.34 C25.93 70.93, 44.01 52.87, 88.01 2.31 M13.22 88.34 C36.54 62.54, 60.05 33.87, 88.01 2.31 M17.55 89.46 C42.2 63.83, 66.25 34.82, 93.65 1.91 M17.55 89.46 C43.19 58.97, 67.12 29.16, 93.65 1.91 M22.54 89.82 C42.69 64.83, 63.51 41.2, 98.64 2.27 M22.54 89.82 C45.92 63.76, 66.18 40.02, 98.64 2.27 M25.56 92.44 C54.82 56.63, 84.8 22.62, 104.28 1.88 M25.56 92.44 C41.3 72.39, 59.38 54.23, 104.28 1.88 M30.54 92.8 C49.75 71.1, 69.06 48.59, 109.27 2.24 M30.54 92.8 C50.82 69.95, 70.38 48.34, 109.27 2.24 M36.19 92.41 C56.15 68.5, 79.49 43.18, 114.91 1.84 M36.19 92.41 C60.26 64.52, 86.75 35.06, 114.91 1.84 M41.17 92.77 C70.83 56.07, 100.62 25.33, 121.87 -0.06 M41.17 92.77 C65.09 64.38, 91.11 34.8, 121.87 -0.06 M46.82 92.37 C67.41 69.45, 90.54 42.93, 126.2 1.05 M46.82 92.37 C77.74 56.03, 110.12 20.76, 126.2 1.05 M51.8 92.73 C70.03 74.71, 82.89 53.69, 130.53 2.17 M51.8 92.73 C80.47 59.85, 109.41 27.16, 130.53 2.17 M57.45 92.34 C81.74 64.47, 104.88 36.18, 134.86 3.28 M57.45 92.34 C84.99 59.51, 114.38 25.78, 134.86 3.28 M62.43 92.7 C80.63 72.33, 95.88 53.37, 137.88 5.91 M62.43 92.7 C86.54 63.86, 111.21 35.89, 137.88 5.91 M68.08 92.3 C85.52 72.34, 104.54 51.13, 140.9 8.53 M68.08 92.3 C90.94 65.11, 114.77 39.93, 140.9 8.53 M73.06 92.66 C88.6 73.11, 107.67 51.37, 143.92 11.16 M73.06 92.66 C91.78 69.73, 111.72 47.11, 143.92 11.16 M78.71 92.27 C103.34 63.38, 127.08 36.42, 143.66 17.55 M78.71 92.27 C96.59 72.24, 113.57 53.31, 143.66 17.55 M83.69 92.63 C105.14 69.75, 125.17 42.83, 144.05 23.2 M83.69 92.63 C106.66 66.25, 129.24 39.18, 144.05 23.2 M89.34 92.24 C101.15 80.5, 112.93 63.83, 143.79 29.59 M89.34 92.24 C109.81 68.65, 131.04 44.47, 143.79 29.59 M94.32 92.6 C112.6 70.89, 132.69 50.44, 144.19 35.24 M94.32 92.6 C111.39 73.18, 128.87 52.24, 144.19 35.24 M99.97 92.2 C109.24 81.27, 121.61 68.06, 143.92 41.64 M99.97 92.2 C111.49 80.27, 122.19 67.39, 143.92 41.64 M104.95 92.56 C118.49 80.05, 130.05 64.36, 144.32 47.28 M104.95 92.56 C118.22 76.99, 130.72 63.86, 144.32 47.28 M109.94 92.92 C118.06 82.24, 128.86 68.59, 144.06 53.68 M109.94 92.92 C120.73 78.64, 134.44 66.27, 144.06 53.68 M115.58 92.53 C125.99 78.59, 137.36 69.89, 143.8 60.07 M115.58 92.53 C122.68 84.65, 128.71 77.68, 143.8 60.07 M122.54 90.62 C126.92 83.64, 132.82 78.66, 144.19 65.72 M122.54 90.62 C131 81.7, 138.41 72.86, 144.19 65.72 M128.84 89.47 C135.41 82.51, 141.58 76.51, 146.55 69.1 M128.84 89.47 C133.16 83.16, 138.61 79.13, 146.55 69.1" stroke="#228be6" stroke-width="0.5" fill="none"></path><path d="M22.5 0 M22.5 0 C56.77 -1.47, 88.33 0.45, 121.5 0 M22.5 0 C49.65 -0.12, 77.04 -0.41, 121.5 0 M121.5 0 C137.79 1.77, 144.44 9.11, 144 22.5 M121.5 0 C138.15 1.06, 145.25 8.82, 144 22.5 M144 22.5 C144.35 33.15, 144.22 42.5, 144 67.5 M144 22.5 C143.66 35.59, 142.93 48.71, 144 67.5 M144 67.5 C143.52 81.62, 137.88 88.39, 121.5 90 M144 67.5 C143.29 83.69, 134.52 89.57, 121.5 90 M121.5 90 C91.19 89.96, 64.21 90.76, 22.5 90 M121.5 90 C82.05 91.18, 43.38 90.11, 22.5 90 M22.5 90 C5.55 89.83, 1.95 83.81, 0 67.5 M22.5 90 C6.96 91.38, 0.3 81.77, 0 67.5 M0 67.5 C-0.2 55.24, -0.67 45.73, 0 22.5 M0 67.5 C0.02 51.66, -0.46 37.2, 0 22.5 M0 22.5 C0.96 8.49, 7.9 -1.92, 22.5 0 M0 22.5 C1.39 7.27, 7.96 -0.58, 22.5 0" stroke="#000000" stroke-width="1" fill="none"></path></g><g transform="translate(275.61328125 225.62109375) rotate(0 53.5 12.5)"><text x="53.5" y="18" font-family="Virgil, Segoe UI Emoji" font-size="20px" fill="#000000" text-anchor="middle" style="white-space: pre;" direction="ltr">Deploy app</text></g><g stroke-linecap="round"><g transform="translate(504.359375 241.40234375) rotate(0 -47.62836568970238 0.8471361287310515)"><path d="M-0.87 0.28 C-17.01 0.25, -79.76 0.89, -95.7 0.9 M0.87 -0.62 C-15.44 0.06, -79.78 2, -96.13 2.32" stroke="#000000" stroke-width="1" fill="none"></path></g><g transform="translate(504.359375 241.40234375) rotate(0 -47.62836568970238 0.8471361287310515)"><path d="M-67.75 -7.01 C-79.49 -4.26, -91.4 -1.67, -97.59 3.68 M-68.14 -8.52 C-74.29 -5.15, -80.58 -3.42, -95.75 3.29" stroke="#000000" stroke-width="1" fill="none"></path></g><g transform="translate(504.359375 241.40234375) rotate(0 -47.62836568970238 0.8471361287310515)"><path d="M-67.22 13.51 C-79.35 8.17, -91.46 2.68, -97.59 3.68 M-67.62 11.99 C-73.68 10.66, -80.1 7.69, -95.75 3.29" stroke="#000000" stroke-width="1" fill="none"></path></g></g><mask></mask></svg>